<?xml version="1.0" standalone="no"?>
<!DOCTYPE svg PUBLIC "-//W3C//DTD SVG 20010904//EN"
 "http://www.w3.org/TR/2001/REC-SVG-20010904/DTD/svg10.dtd">
<svg version="1.0" xmlns="http://www.w3.org/2000/svg"
 width="2062.000000pt" height="788.000000pt" viewBox="0 0 2062.000000 788.000000"
 preserveAspectRatio="xMidYMid meet">

<g transform="translate(0.000000,788.000000) scale(0.100000,-0.100000)"
fill="#000000" stroke="none">
<path d="M11410 7655 l0 -225 230 0 230 0 0 225 0 225 -230 0 -230 0 0 -225z"/>
<path d="M8430 7150 l0 -280 -295 0 -295 0 0 -170 0 -170 295 0 295 0 0 -682
c0 -389 4 -722 10 -773 21 -189 76 -311 190 -425 80 -81 176 -136 310 -180 65
-21 270 -60 316 -60 22 0 23 3 14 20 -10 18 -8 20 17 20 15 0 52 -11 81 -25
64 -30 66 -30 87 -9 15 15 17 15 35 -1 17 -16 44 -17 297 -12 359 6 514 32
688 118 138 67 218 154 271 296 47 123 55 191 61 476 l5 267 -184 0 -185 0 -6
-197 c-12 -366 -66 -508 -216 -564 -131 -49 -294 -69 -555 -69 -347 0 -531 44
-641 155 -53 53 -80 103 -108 203 -20 75 -21 98 -25 760 l-3 682 475 0 c363 0
475 3 478 12 4 10 13 10 45 0 29 -9 156 -12 442 -12 l401 0 0 170 0 170 -920
0 -920 0 0 280 0 280 -230 0 -230 0 0 -280z m1885 -370 c3 -5 -8 -19 -25 -31
-19 -14 -30 -32 -30 -47 0 -26 -17 -26 -34 0 -7 12 -3 24 17 48 15 17 27 38
27 46 0 11 4 12 19 4 11 -5 23 -14 26 -20z"/>
<path d="M1080 6903 c-161 -7 -315 -26 -349 -43 -20 -10 -57 -22 -83 -25 -84
-12 -112 -68 -63 -127 20 -23 23 -33 15 -49 -6 -10 -15 -19 -20 -19 -8 0 -30
61 -48 140 -10 41 -20 41 -97 6 -74 -34 -138 -84 -131 -102 3 -9 -1 -22 -8
-30 -13 -12 -16 -12 -24 2 -7 13 -15 7 -46 -34 -73 -100 -106 -214 -106 -369
l0 -93 230 0 c198 0 230 2 230 15 0 8 -6 15 -13 15 -7 0 -30 9 -52 20 -22 11
-47 20 -57 20 -27 0 -32 25 -14 64 9 19 16 42 16 51 0 13 5 15 18 9 39 -17
102 -15 177 6 43 12 91 20 106 18 41 -6 37 18 -6 43 -34 21 -35 21 -19 47 32
55 38 58 139 75 55 9 131 19 168 22 38 4 84 13 103 21 41 17 44 17 44 0 0 -12
89 -15 598 -19 505 -3 613 -6 701 -21 265 -44 379 -114 442 -273 23 -56 24
-71 27 -373 l3 -315 -29 45 c-85 134 -261 215 -557 258 -105 15 -206 17 -790
16 -676 0 -778 -4 -1020 -41 -104 -15 -112 -18 -142 -51 -17 -19 -36 -31 -42
-27 -8 4 -3 13 11 26 l23 20 -30 -6 c-73 -15 -235 -108 -235 -135 0 -5 8 -11
18 -14 9 -3 31 -17 47 -31 29 -25 29 -26 5 -19 -14 4 -31 9 -38 11 -7 3 -2
-16 13 -48 13 -29 22 -55 20 -57 -3 -3 -20 7 -40 22 -24 19 -35 35 -35 53 0
21 -3 24 -22 19 -13 -3 -26 -6 -29 -6 -14 0 -61 -126 -76 -202 -20 -108 -13
-439 12 -538 28 -111 81 -208 154 -280 144 -143 341 -200 691 -200 137 0 152
2 134 14 -11 8 -33 31 -48 50 l-27 35 43 22 43 21 -23 -25 -23 -25 62 -11 c70
-12 99 -3 99 31 0 19 4 16 33 -16 17 -20 50 -43 71 -50 l39 -14 -29 -15 c-27
-15 13 -16 516 -17 543 0 704 7 850 36 137 28 228 84 303 187 l42 58 3 -121 3
-120 229 0 230 0 0 843 c0 684 -3 860 -15 937 -27 178 -83 298 -191 407 -165
166 -454 248 -954 273 -180 8 -1003 11 -1180 3z m-712 -330 c4 -27 5 -26 -37
-12 -26 9 -30 14 -20 26 18 21 53 12 57 -14z m2712 -373 c20 -6 16 -8 -23 -9
-30 -1 -46 3 -42 9 7 11 29 11 65 0z m-577 -653 c272 -41 388 -103 438 -236
18 -49 20 -72 17 -181 -4 -146 -18 -182 -94 -248 -54 -48 -124 -77 -249 -102
-177 -36 -292 -42 -915 -46 -419 -3 -627 -8 -652 -16 -44 -13 -73 -41 -65 -63
4 -9 1 -15 -9 -15 -17 0 -88 66 -95 88 -2 7 -45 21 -96 31 -163 34 -251 91
-295 190 -26 58 -37 256 -18 344 26 126 111 202 263 237 157 35 240 38 962 36
582 -3 718 -6 808 -19z m-2433 -299 c22 -13 40 -26 40 -30 0 -19 -20 -13 -55
17 -46 40 -40 44 15 13z m3051 -205 c-5 -10 -16 -27 -24 -37 -14 -19 -15 -19
-26 3 -7 13 -11 24 -9 25 9 6 54 25 61 25 4 1 3 -7 -2 -16z m-43 -260 c20 -17
20 -20 6 -52 -14 -33 -15 -34 -29 -15 -7 11 -32 29 -54 39 -48 21 -52 32 -13
38 55 8 70 7 90 -10z m-2338 -350 c0 -7 -39 17 -46 28 -3 6 5 3 20 -6 14 -10
26 -19 26 -22z"/>
<path d="M5245 6898 c-66 -5 -149 -9 -184 -8 l-63 1 7 -28 c3 -15 12 -34 18
-42 19 -22 107 -60 171 -72 l59 -12 -27 -20 -27 -20 43 -44 c36 -36 40 -45 28
-54 -8 -5 -35 -7 -60 -4 -25 3 -88 8 -141 12 -104 6 -151 -7 -164 -47 -13 -40
-97 -39 -217 1 -91 31 -113 23 -155 -56 -18 -33 -34 -64 -35 -68 -2 -5 -37 8
-78 27 -43 20 -94 37 -120 38 l-45 3 -46 -92 c-52 -104 -85 -223 -99 -363 -11
-107 -13 -666 -4 -783 7 -72 8 -76 27 -65 33 17 91 3 163 -40 l68 -41 -53 -7
c-34 -4 -56 -13 -65 -26 -14 -19 -16 -18 -66 21 -29 23 -55 40 -57 37 -11 -10
40 -175 77 -252 107 -222 308 -372 590 -443 199 -50 266 -53 1095 -48 812 5
827 5 1029 58 110 29 269 107 335 166 30 26 74 74 98 106 l43 59 -26 21 c-22
17 -25 26 -21 54 5 29 3 33 -18 33 -12 0 -33 -8 -45 -18 l-22 -18 26 -52 c31
-61 32 -73 7 -103 -18 -22 -19 -23 -107 -10 -49 7 -100 15 -114 18 -20 5 -23
3 -12 -8 16 -17 16 -37 0 -21 -18 18 -66 15 -124 -7 -28 -11 -61 -17 -73 -14
-22 6 -22 9 -16 74 7 70 0 84 -25 54 -12 -14 -15 -14 -30 0 -9 8 -20 12 -23 9
-4 -4 0 -12 9 -19 14 -10 8 -19 -46 -68 -77 -69 -132 -97 -192 -97 -34 0 -52
6 -72 25 -14 13 -43 27 -64 30 -69 12 -111 25 -125 39 -11 12 -106 15 -518 19
-456 4 -515 6 -615 25 -356 67 -519 212 -570 505 -13 76 -15 152 -12 437 4
314 7 352 26 425 40 148 113 263 200 317 29 17 33 24 19 26 -10 2 -24 -2 -32
-8 -10 -8 -15 -9 -15 -2 0 21 36 32 71 22 25 -7 37 -6 49 5 20 18 85 41 175
62 57 14 153 18 514 22 l444 6 13 35 c7 19 13 50 13 69 1 31 3 33 28 26 16 -4
30 -8 32 -10 2 -2 -13 -26 -33 -53 -20 -27 -36 -55 -36 -61 0 -7 33 -11 101
-11 l102 0 -6 45 c-6 44 8 75 35 75 6 0 6 6 -2 15 -7 8 -18 15 -24 15 -6 0
-17 4 -25 9 -11 7 -8 17 17 53 28 41 29 44 10 45 -30 3 -48 23 -48 54 l0 29
-102 -1 c-67 0 -96 -3 -83 -9 11 -5 36 -9 55 -9 43 -1 80 -25 80 -52 0 -25 0
-25 -67 13 -55 31 -56 31 -50 9 9 -36 -8 -67 -57 -100 -24 -17 -47 -31 -51
-31 -13 0 26 59 58 87 l35 30 -20 32 -20 31 -301 -2 c-166 -1 -356 -5 -422
-10z m-925 -2023 c26 -31 -27 -48 -73 -23 -22 11 -22 12 8 24 39 17 50 17 65
-1z"/>
<path d="M13935 6899 c-531 -29 -884 -161 -1049 -393 -69 -96 -156 -300 -144
-336 2 -6 25 12 53 40 48 48 48 50 23 50 -60 0 -32 18 45 29 137 20 288 25
344 12 l51 -13 74 75 c112 113 255 170 496 196 166 18 1332 15 1474 -4 299
-39 456 -130 547 -317 59 -121 71 -197 72 -460 0 -123 3 -218 5 -212 4 9 14 8
37 -4 43 -21 43 -19 22 -42 -12 -14 -25 -18 -41 -14 -22 6 -24 3 -24 -35 l0
-40 50 -7 c57 -7 70 -18 41 -33 -13 -8 -28 -8 -46 -1 -14 5 -30 10 -34 10 -4
0 -11 -35 -14 -77 -19 -238 -120 -400 -299 -482 -130 -59 -141 -63 -173 -67
-16 -1 -68 -10 -115 -19 -70 -14 -171 -18 -565 -22 l-480 -4 -25 -28 c-14 -16
-53 -49 -87 -75 -60 -45 -103 -90 -103 -107 0 -5 13 -9 29 -9 35 0 43 -11 51
-65 l5 -40 550 1 c519 0 558 1 695 23 254 39 398 82 564 169 128 67 255 192
315 312 l42 85 -28 5 -28 6 33 11 c39 14 45 30 67 159 14 84 16 164 13 519 -2
314 -6 426 -16 442 -6 12 -14 43 -17 69 -6 57 -58 179 -108 256 -53 80 -169
185 -261 237 -207 117 -473 179 -864 201 -203 11 -968 11 -1177 -1z m2316
-682 c30 12 59 8 59 -7 0 -15 -72 -32 -113 -27 -22 3 -49 14 -59 25 -19 19
-18 19 32 8 37 -7 59 -7 81 1z m-1825 -1625 c-6 -6 -86 28 -86 37 0 3 19 25
43 49 l42 43 3 -62 c2 -34 1 -64 -2 -67z m984 38 c-12 -16 -26 -30 -31 -30 -5
0 -9 14 -9 30 0 27 3 30 31 30 l30 0 -21 -30z"/>
<path d="M18570 6903 c-252 -11 -559 -59 -534 -83 5 -4 48 -20 95 -34 l87 -27
-11 -40 c-6 -24 -20 -47 -34 -56 -22 -15 -22 -17 -8 -33 15 -17 15 -19 -7 -34
-29 -21 -29 -21 -73 14 -21 17 -49 30 -62 30 -34 0 -63 -17 -63 -38 0 -33 -40
-83 -83 -102 -34 -16 -65 -20 -164 -20 -132 0 -153 -8 -153 -56 0 -32 -9 -30
-55 9 -51 44 -50 73 3 162 47 77 50 96 23 141 -19 31 -108 84 -142 84 -25 0
-41 -25 -37 -62 2 -24 -1 -33 -14 -36 -12 -2 -18 7 -23 38 -7 40 -8 41 -22 21
-18 -26 -43 -26 -95 -1 -23 11 -43 20 -45 20 -2 0 -3 -531 -3 -1180 l0 -1180
213 0 c186 1 209 2 187 15 -14 7 -64 21 -110 29 -104 20 -115 29 -75 62 25 21
37 24 74 20 24 -4 69 -17 99 -31 30 -14 58 -25 63 -25 4 0 10 341 12 758 3
692 4 762 21 817 82 275 258 395 663 450 205 29 187 24 170 43 -30 36 -30 42
7 42 33 0 36 -3 36 -27 l0 -28 437 0 c372 0 455 -3 551 -18 349 -55 477 -144
550 -380 14 -45 16 -160 19 -889 l4 -838 67 0 67 1 -45 41 -45 41 33 -6 c19
-4 59 -23 91 -42 44 -27 67 -35 104 -35 52 0 57 9 27 47 -11 14 -20 30 -20 34
0 19 17 7 50 -36 40 -51 60 -55 88 -20 11 14 25 25 31 25 9 0 11 217 8 868 -4
969 -1 933 -75 1087 -134 278 -419 422 -899 455 -130 8 -806 11 -983 3z m177
-30 c9 -22 -16 -64 -49 -82 -23 -13 -28 -13 -52 2 -33 22 -33 50 0 76 33 26
92 28 101 4z m-312 -29 c34 -25 34 -26 17 -52 -9 -15 -22 -31 -29 -35 -8 -5
-11 -12 -8 -17 3 -4 -12 -20 -32 -36 l-36 -27 -19 22 c-30 38 -23 76 23 126
23 25 44 45 46 45 2 0 20 -12 38 -26z m-1001 -200 c9 -23 1 -28 -23 -14 -30
16 -41 5 -41 -43 0 -66 -10 -73 -61 -46 -39 20 -41 24 -21 27 19 3 23 9 20 35
-3 30 0 33 37 44 58 16 82 15 89 -3z"/>
<path d="M6422 6877 c21 -12 38 -26 38 -31 0 -10 -63 -71 -131 -128 -35 -29
-41 -39 -32 -49 22 -22 113 -22 223 0 58 11 118 22 133 23 26 3 24 6 -43 58
-38 30 -70 57 -70 60 0 4 11 22 25 41 l26 34 -43 7 c-24 3 -70 7 -103 7 l-60
0 37 -22z"/>
<path d="M6660 6864 c19 -9 64 -18 100 -20 l65 -4 -48 14 c-27 8 -72 17 -100
20 l-52 6 35 -16z"/>
<path d="M11410 5655 l0 -1215 230 0 230 0 -2 476 -3 477 -94 36 c-52 20 -96
42 -98 47 -2 6 8 19 23 29 26 17 27 17 61 -19 37 -37 72 -53 98 -42 13 5 15
64 15 457 l0 452 -36 -6 c-19 -3 -46 -2 -59 3 -31 12 -86 91 -75 110 4 8 10
37 14 63 12 95 37 108 112 57 l44 -31 0 161 0 160 -230 0 -230 0 0 -1215z
m260 795 c8 -5 11 -10 5 -10 -5 0 -17 5 -25 10 -8 5 -10 10 -5 10 6 0 17 -5
25 -10z m8 -848 c3 -10 -7 -12 -39 -10 -24 2 -44 9 -47 16 -3 10 7 12 39 10
24 -2 44 -9 47 -16z m-140 -94 c7 -7 12 -24 12 -39 0 -33 23 -59 53 -59 17 -1
14 -5 -16 -21 -22 -11 -41 -18 -44 -16 -2 3 -13 37 -23 76 -13 52 -15 71 -6
71 7 0 17 -5 24 -12z m177 -245 c4 -10 8 -29 9 -43 1 -19 12 -31 46 -48 25
-13 38 -21 30 -19 -138 39 -130 34 -130 76 0 21 3 41 7 44 12 13 31 7 38 -10z
m110 -538 c16 -51 16 -57 1 -80 -20 -30 -26 -31 -73 -5 -49 26 -56 26 -132
-10 -43 -21 -77 -30 -100 -28 l-36 3 35 22 c19 13 88 35 152 50 65 15 122 30
128 33 7 4 5 21 -5 49 -18 53 -19 61 -1 38 7 -9 21 -42 31 -72z"/>
<path d="M17182 6858 c25 -7 43 -6 55 1 14 8 6 10 -37 10 -55 -1 -55 -1 -18
-11z"/>
<path d="M17405 6860 c28 -12 65 -12 65 0 0 6 -19 10 -42 9 -33 0 -38 -2 -23
-9z"/>
<path d="M4781 6834 c-52 -13 -128 -39 -169 -56 -68 -28 -74 -33 -54 -41 18
-8 25 -6 35 7 23 32 92 31 215 -2 l112 -30 0 48 c0 53 -16 100 -34 100 -6 -1
-53 -12 -105 -26z"/>
<path d="M6735 6714 c40 -97 86 -130 254 -184 138 -45 210 -88 232 -139 13
-29 14 -30 19 -10 5 21 6 21 17 -5 12 -25 12 -26 -22 -26 -31 0 -35 -3 -35
-26 0 -25 -2 -26 -37 -19 -86 16 -120 55 -102 117 14 50 13 51 -46 46 -59 -5
-95 -28 -95 -60 0 -10 15 -51 34 -91 36 -76 56 -165 56 -254 l0 -53 215 0 215
0 0 84 c0 46 -7 123 -15 172 -29 172 -140 346 -281 439 l-54 36 -100 -12 c-95
-11 -198 -5 -255 17 -15 6 -15 4 0 -32z"/>
<path d="M4475 6710 c-3 -6 1 -7 9 -4 18 7 21 14 7 14 -6 0 -13 -4 -16 -10z"/>
<path d="M13010 6221 c-19 -5 -26 -15 -28 -38 -2 -19 2 -33 10 -36 7 -2 4 -3
-7 -1 -139 23 -172 25 -210 12 -32 -11 -41 -19 -48 -48 -15 -58 -21 -746 -8
-860 15 -123 42 -224 86 -315 30 -63 37 -71 61 -70 22 0 32 -9 54 -45 18 -32
34 -46 51 -48 37 -4 48 15 51 88 3 70 9 75 66 56 22 -7 23 -6 20 41 -3 46 -5
49 -48 69 -75 36 -92 66 -45 78 39 10 76 -13 112 -69 40 -61 72 -79 123 -70
l38 6 -30 62 c-17 34 -42 105 -56 157 -26 94 -26 98 -27 465 0 309 3 380 16
433 9 34 13 62 8 62 -4 0 -14 3 -23 6 -14 5 -14 3 -2 -21 17 -33 11 -57 -21
-90 -39 -38 -113 -31 -113 11 0 9 11 11 34 7 40 -6 76 11 76 36 0 23 -86 131
-103 130 -7 -1 -23 -4 -37 -8z"/>
<path d="M7060 5273 c0 -83 -25 -186 -58 -248 -16 -30 -27 -57 -24 -60 10 -10
81 -5 149 11 87 20 184 15 241 -13 l42 -21 0 21 c0 12 -21 64 -47 115 -39 79
-45 98 -37 120 7 21 19 29 52 36 39 8 45 7 70 -17 16 -15 31 -27 35 -27 4 0 7
32 7 70 l0 70 -175 0 -175 0 -12 -27 c-7 -16 -13 -29 -14 -31 0 -1 -9 0 -18 4
-13 5 -16 14 -12 30 5 17 2 24 -9 24 -12 0 -15 -13 -15 -57z"/>
<path d="M7375 5163 c17 -8 47 -31 68 -51 33 -32 37 -34 37 -15 0 11 3 35 6
52 l7 31 -74 0 c-73 -1 -74 -1 -44 -17z"/>
<path d="M13370 4853 c0 -19 161 -183 179 -183 20 0 11 38 -14 58 -21 17 -22
21 -9 26 19 7 34 0 34 -17 0 -22 49 -117 60 -117 5 0 10 6 10 14 0 7 11 34 25
60 29 55 29 56 11 56 -35 0 -176 52 -230 85 -32 19 -60 35 -62 35 -2 0 -4 -8
-4 -17z"/>
<path d="M12860 4820 c0 -5 24 -35 54 -67 53 -56 55 -57 69 -38 19 24 13 35
-18 35 -15 0 -26 7 -30 20 -10 33 -75 76 -75 50z"/>
<path d="M6348 4713 c6 -2 18 -2 25 0 6 3 1 5 -13 5 -14 0 -19 -2 -12 -5z"/>
<path d="M13842 4699 c-31 -24 -87 -39 -122 -33 -23 5 -29 2 -37 -23 -9 -26
-5 -66 11 -105 6 -14 -2 -17 -61 -23 -37 -3 -77 -7 -88 -8 -15 -2 -20 -9 -18
-31 3 -36 0 -34 59 -45 40 -8 52 -6 66 6 16 14 19 14 35 -5 15 -18 36 -23 122
-32 57 -5 145 -10 196 -10 l94 0 -8 28 c-23 80 -51 104 -136 117 -76 12 -75
11 -76 73 -1 31 -4 69 -8 84 -6 26 -6 26 -29 7z"/>
<path d="M13930 4710 c68 -16 160 -17 160 -3 0 10 -23 13 -97 12 -73 -1 -89
-3 -63 -9z"/>
    <g fill="#bd202b">
<path d="M1214 3829 c-454 -29 -783 -137 -937 -309 -93 -103 -170 -280 -202
-465 -46 -262 -36 -700 21 -950 21 -91 82 -218 135 -279 l42 -48 151 7 c175 8
296 -4 404 -41 86 -29 82 -28 82 -7 0 15 1 15 13 -1 13 -17 15 -17 45 -2 52
27 62 22 62 -28 l0 -45 -47 -6 c-118 -16 -286 -46 -300 -54 -11 -6 12 -14 78
-26 284 -52 534 -65 1481 -75 808 -9 908 -14 1038 -50 105 -29 183 -89 218
-169 11 -24 16 -67 16 -126 1 -81 -2 -95 -29 -143 -32 -58 -81 -103 -142 -128
-96 -41 -156 -43 -993 -43 -452 0 -837 4 -878 9 -222 29 -253 66 -308 378 l-4
22 -562 0 -561 0 6 -213 c6 -203 22 -340 51 -437 77 -257 226 -410 481 -494
103 -34 287 -71 440 -88 140 -15 2195 -19 2398 -4 115 8 118 9 113 30 -5 20
-2 22 30 18 39 -5 114 15 114 30 0 19 -30 64 -62 94 -40 38 -99 69 -162 85
-43 11 -46 13 -32 27 27 28 73 18 139 -29 48 -33 71 -43 101 -43 22 -1 41 5
43 11 3 8 17 4 43 -12 92 -58 139 -42 161 53 6 27 3 38 -12 53 -19 19 -19 20
6 45 26 26 34 27 120 12 34 -5 32 38 -4 69 l-31 27 33 11 c23 7 33 17 35 36 4
31 -21 54 -91 89 -42 20 -52 30 -52 50 0 20 4 25 24 22 39 -4 99 17 116 41 19
27 21 67 3 49 -25 -25 -58 -12 -124 49 -60 56 -69 61 -102 57 -20 -3 -45 -8
-54 -12 -35 -16 -71 113 -38 135 28 17 37 9 44 -40 8 -60 16 -64 131 -65 44
-1 88 -5 98 -10 12 -6 17 -4 17 6 0 11 26 19 93 31 116 21 150 21 193 1 45
-21 50 -32 28 -53 -11 -10 -31 -32 -47 -50 -34 -39 -52 -39 -75 -1 l-18 29
-22 -68 -23 -69 62 -59 c91 -87 148 -110 201 -82 11 6 22 8 25 5 12 -12 -30
-44 -70 -55 -54 -14 -107 -46 -107 -66 0 -11 -11 -15 -45 -15 -25 0 -45 -3
-45 -7 0 -21 44 -75 80 -99 23 -15 47 -39 55 -53 13 -23 14 -24 16 -6 1 14 4
10 8 -10 l8 -30 70 71 c77 77 138 180 130 220 -3 15 1 24 9 24 7 0 19 24 28
53 49 168 73 479 57 735 -24 372 -84 555 -230 702 -210 210 -543 294 -1260
320 -146 5 -267 8 -269 6 -2 -2 24 -23 57 -46 34 -24 61 -46 61 -50 0 -22 -39
-34 -118 -38 -48 -2 -95 -9 -104 -14 -16 -8 -18 -3 -18 42 0 47 2 50 25 50 21
0 25 5 25 30 l0 30 -141 0 -141 0 6 -24 c3 -14 2 -28 -4 -31 -5 -3 -10 -25
-10 -48 0 -68 -8 -72 -76 -37 -55 28 -67 30 -170 30 -61 0 -113 3 -117 6 -3 4
22 27 56 53 l62 46 -425 6 c-293 5 -437 10 -465 19 -145 45 -209 133 -210 290
0 73 4 93 26 135 47 92 149 147 307 165 114 13 1342 13 1491 0 171 -15 249
-39 298 -92 37 -39 64 -115 70 -194 l6 -74 558 0 559 0 0 126 c0 155 -17 313
-37 335 -9 11 -12 26 -7 43 9 36 -29 153 -82 256 -46 89 -107 167 -169 215
-34 25 -37 26 -30 6 8 -25 2 -26 -59 -5 l-47 16 21 23 21 22 -72 32 c-151 68
-384 112 -684 131 -185 11 -1939 11 -2121 -1z m1222 -131 c41 -59 59 -77 67
-69 8 8 17 0 32 -31 20 -44 59 -63 75 -38 5 8 13 2 26 -18 l17 -31 39 20 c54
27 45 -5 -12 -44 -51 -35 -112 -16 -274 86 -103 65 -103 65 -147 -27 l-28 -58
-15 53 c-34 122 -35 115 33 134 65 19 102 50 105 88 2 38 20 23 82 -65z m-996
-38 c0 -61 -2 -70 -18 -70 -10 0 -73 -18 -140 -40 -86 -28 -138 -40 -179 -40
-69 0 -84 8 -81 41 3 26 0 27 -77 14 -57 -10 -68 6 -59 84 3 34 10 61 14 61 3
0 13 -12 21 -27 8 -14 29 -32 47 -40 29 -12 41 -12 88 2 53 15 65 27 42 41
-24 15 40 27 172 34 74 4 143 7 153 8 15 2 17 -7 17 -68z m127 -32 l28 -18
-51 0 -51 0 11 35 c10 31 12 33 23 18 7 -9 25 -25 40 -35z m514 25 c13 -16 12
-17 -3 -4 -10 7 -18 15 -18 17 0 8 8 3 21 -13z m-369 -118 l-8 -60 -19 37
c-18 37 -18 37 6 72 28 42 32 33 21 -49z m-592 -246 c0 -19 -20 -49 -34 -49
-7 0 -23 11 -35 24 l-23 25 38 4 c22 2 42 4 47 5 4 1 7 -3 7 -9z m-143 -51
c-3 -8 -6 -5 -6 6 -1 11 2 17 5 13 3 -3 4 -12 1 -19z m-343 -203 c-14 -19 -29
-35 -33 -35 -3 0 -4 22 -3 50 l4 50 29 -16 29 -15 -26 -34z m2754 26 c10 -6
11 -13 1 -34 -16 -35 -23 -34 -48 8 l-20 35 27 0 c15 0 33 -4 40 -9z m266
-377 c12 -5 13 -10 5 -25 -12 -24 -18 -24 -54 6 l-30 25 32 0 c17 0 38 -3 47
-6z m-540 -349 c4 -11 -2 -15 -22 -15 -26 1 -26 1 -8 15 24 18 23 18 30 0z
m16 -59 c0 -25 -27 -43 -42 -28 -9 9 18 52 33 52 5 0 9 -11 9 -24z m-100 -64
c0 -15 -46 -34 -73 -30 -18 3 -16 7 14 44 33 40 34 41 46 20 7 -11 12 -27 13
-34z m-304 -43 c-10 -37 -11 -39 -17 -18 -12 43 -10 59 10 59 17 0 17 -4 7
-41z m129 -74 c0 -26 -31 -31 -56 -9 -29 26 -23 36 19 32 29 -2 37 -7 37 -23z
m-1624 -339 l34 -14 -30 -7 c-16 -4 -36 -14 -43 -23 -9 -12 -15 -13 -24 -4 -9
9 -8 12 6 12 14 0 17 6 14 25 -6 29 -2 30 43 11z m1017 -22 c37 -10 65 -27 94
-56 l41 -41 -24 -9 c-53 -20 -285 23 -379 70 -30 15 -54 32 -53 37 7 26 227
25 321 -1z m388 -59 c3 -7 4 -26 2 -42 -4 -27 -5 -26 -26 20 -12 27 -22 51
-22 53 0 10 41 -18 46 -31z m-2294 -552 l3 -28 96 0 c89 0 98 -2 137 -29 23
-15 47 -35 54 -43 10 -12 7 -13 -18 -7 -41 11 -275 10 -299 -1 -17 -8 -18 -7
-7 7 10 12 9 23 -7 59 -21 47 -15 69 20 69 12 0 19 -9 21 -27z m928 -310 c27
-16 50 -31 50 -35 0 -12 -52 -36 -94 -44 -28 -5 -37 -4 -32 5 4 6 2 28 -4 47
-10 30 -10 38 1 45 20 13 24 12 79 -18z m-255 -156 l29 -68 15 25 c20 32 24
32 72 -1 40 -29 40 -31 18 -90 -14 -37 -47 -63 -79 -63 -39 0 -76 19 -164 82
-38 28 -86 58 -108 68 l-39 17 41 17 c22 9 51 16 64 16 24 0 71 31 95 63 17
23 21 18 56 -66z m-376 -47 c5 0 11 10 13 22 5 38 99 -109 105 -166 3 -25 3
-46 0 -46 -3 0 -15 19 -25 43 -11 25 -40 61 -71 86 -45 38 -81 85 -81 107 0 4
11 -5 25 -20 13 -14 28 -26 34 -26z m3211 -291 c-7 -11 -14 -18 -17 -15 -3 3
0 12 7 21 18 21 23 19 10 -6z m-40 -43 c0 -3 -4 -8 -10 -11 -5 -3 -10 -1 -10
4 0 6 5 11 10 11 6 0 10 -2 10 -4z"/>
<path d="M11885 3829 c-342 -24 -624 -96 -815 -210 -104 -61 -114 -72 -101
-98 7 -12 16 -19 21 -16 10 6 71 -90 63 -99 -11 -11 -70 -6 -81 7 -6 7 -14 36
-18 64 l-6 52 -24 -16 c-36 -23 -137 -153 -180 -229 -82 -147 -143 -374 -163
-609 -13 -154 -14 -1384 -1 -1535 45 -518 239 -823 627 -988 98 -41 111 -44
152 -36 52 10 51 9 36 118 -7 57 -7 58 14 47 31 -17 49 -50 70 -125 10 -37 26
-75 36 -86 23 -25 66 -29 86 -9 9 9 45 24 80 32 35 8 72 18 81 22 14 5 23 -5
44 -48 l27 -54 91 -7 c50 -3 573 -6 1161 -6 1036 0 1331 7 1346 31 3 6 17 7
31 4 58 -15 359 60 503 125 328 147 509 424 582 890 16 103 18 193 18 860 0
949 -5 1001 -105 1031 -39 12 -44 11 -125 -30 -48 -25 -91 -41 -100 -37 -9 3
-25 27 -37 53 -11 27 -30 59 -42 72 -21 24 -19 24 26 6 14 -6 12 4 -12 52 -25
50 -31 75 -39 182 -8 109 -13 131 -40 184 l-31 60 65 -5 64 -6 -14 28 c-27 52
-89 76 -242 95 -61 8 -109 37 -136 82 l-19 33 49 -6 c65 -9 47 8 -37 34 -98
30 -247 60 -383 79 -106 14 -270 16 -1262 18 -627 2 -1194 -1 -1260 -6z m1846
-464 c138 -31 226 -59 259 -84 l24 -19 14 51 c7 28 15 53 17 56 3 2 16 -6 30
-19 42 -40 41 -75 -4 -207 -23 -66 -41 -127 -41 -136 0 -25 -13 -20 -31 12
-21 36 -76 52 -94 27 -10 -13 -23 -5 -96 61 -76 69 -198 143 -236 143 -18 0
-16 13 6 41 35 46 43 69 30 85 -15 19 -11 18 122 -11z m499 -182 c0 -12 -33
-43 -46 -43 -12 0 -34 29 -34 44 0 3 18 6 40 6 22 0 40 -3 40 -7z m-776 -100
c-7 -16 -14 -37 -14 -48 0 -41 -44 -61 -55 -25 -9 27 15 72 45 87 36 19 40 16
24 -14z m1656 -90 c0 -33 -3 -44 -11 -36 -9 9 -3 83 7 83 2 0 4 -21 4 -47z
m-1260 -123 c383 -36 523 -187 560 -600 5 -63 10 -221 10 -351 0 -481 -39
-692 -149 -811 -53 -58 -118 -93 -227 -120 l-89 -23 -870 0 c-803 0 -877 1
-954 18 -154 33 -255 93 -308 184 -69 119 -93 272 -100 658 -8 435 12 618 82
772 76 164 226 249 485 273 129 11 1438 12 1560 0z m690 -510 c24 -28 40 -53
37 -56 -7 -7 -96 89 -91 98 8 12 10 11 54 -42z m-20 -1087 c23 -51 22 -62 -3
-35 -17 18 -35 82 -24 82 3 0 15 -21 27 -47z m-130 -93 c8 -5 11 -10 5 -10 -5
0 -17 5 -25 10 -8 5 -10 10 -5 10 6 0 17 -5 25 -10z m-2370 -330 c22 -7 21 -8
-12 -9 -21 -1 -38 4 -38 9 0 11 14 11 50 0z m1563 -112 c7 -4 24 -8 40 -8 15
0 27 -4 27 -9 0 -12 -121 -145 -136 -149 -6 -2 -27 4 -45 13 -19 8 -25 13 -15
10 10 -3 29 2 42 10 22 14 24 23 24 90 0 64 3 78 23 98 l22 22 3 -35 c2 -19 9
-38 15 -42z m-2584 -72 c11 -32 28 -68 38 -78 17 -19 16 -19 -22 -16 l-40 3
-3 80 c-2 43 -1 77 2 75 2 -3 13 -32 25 -64z m2541 -118 c0 -7 -5 -20 -10 -28
-8 -12 -10 -9 -10 13 0 15 5 27 10 27 6 0 10 -6 10 -12z m-513 -68 c22 0 24
-3 19 -24 -5 -20 0 -28 24 -43 34 -20 36 -25 14 -44 -15 -12 -21 -9 -48 23
-17 20 -40 51 -50 69 -17 30 -18 32 -2 26 10 -4 29 -7 43 -7z m358 -21 c19
-20 18 -20 -10 -44 l-30 -23 -3 30 c-6 57 11 73 43 37z m-1515 -35 l129 -36
-2 -122 c-1 -129 10 -186 44 -230 23 -30 14 -33 -42 -15 -44 15 -43 13 -23 43
16 25 16 33 -1 139 -10 62 -23 118 -29 126 -22 29 -74 42 -141 35 l-65 -7 21
-33 c24 -39 16 -44 -18 -12 -19 18 -23 32 -23 85 0 37 4 63 10 63 6 0 69 -16
140 -36z m1380 3 c0 -20 -1 -20 -16 -5 -9 9 -13 21 -9 27 10 16 25 3 25 -22z
m-1782 -57 l-22 -53 -12 34 c-7 19 -13 37 -13 41 -1 7 61 38 67 33 1 -1 -8
-26 -20 -55z m1197 35 c14 -13 25 -30 25 -37 0 -7 5 -44 10 -82 6 -38 8 -71 6
-74 -6 -5 -196 126 -196 136 1 14 39 53 67 67 40 21 60 19 88 -10z m2168 -7
l-2 -28 41 21 c46 24 54 22 32 -9 -19 -28 -63 -29 -98 -1 -35 28 -35 51 2 47
23 -2 27 -7 25 -30z m-2605 -31 c2 -24 11 -42 25 -52 16 -11 18 -18 10 -26
-16 -16 -30 -4 -59 53 -21 41 -23 52 -12 59 22 14 33 4 36 -34z m-360 -164
c10 -17 -4 -63 -18 -63 -10 0 -24 19 -38 53 -11 26 -10 27 18 27 17 0 33 -7
38 -17z m446 -22 l30 -6 -27 -29 c-15 -16 -27 -33 -27 -38 0 -5 -9 -4 -19 2
-11 5 -38 10 -61 10 -54 0 -80 15 -80 45 0 25 1 25 78 24 42 -1 90 -4 106 -8z"/>
<path d="M5320 3490 l1 -310 29 0 c32 0 35 -10 21 -59 -7 -25 -7 -25 -29 10
l-22 34 0 -422 c0 -396 1 -423 18 -423 16 -1 16 -1 0 -11 -14 -7 -18 -23 -18
-61 l0 -50 44 36 c24 20 47 36 50 36 3 0 -1 -19 -9 -41 -8 -23 -15 -43 -15
-45 0 -2 17 -4 38 -5 20 0 45 -4 55 -7 16 -7 16 -9 2 -30 -29 -40 -107 -22
-150 34 -13 17 -14 -19 -12 -301 l2 -319 63 -37 c78 -45 78 -45 62 -64 -19
-23 -65 -18 -99 11 l-31 26 0 -697 c0 -604 2 -700 15 -725 l16 -30 544 0 545
0 -1 238 c-1 134 -4 226 -9 212 -7 -20 -8 -16 -9 23 -1 26 4 47 9 47 7 0 10
158 10 455 l0 455 1170 0 1170 0 0 -305 c0 -266 2 -304 15 -299 19 8 19 -13 0
-91 -11 -46 -14 -138 -15 -397 l0 -338 560 0 560 0 0 585 0 585 -27 6 c-56 12
-63 16 -63 33 0 36 21 42 54 14 l31 -26 3 67 c3 66 2 69 -43 131 l-46 65 46
11 45 11 0 860 0 859 -90 58 c-74 48 -88 60 -76 70 23 19 29 84 12 125 -8 20
-20 36 -25 36 -16 0 -13 97 3 129 19 36 48 54 119 75 49 14 57 20 57 41 l0 25
-560 0 -560 0 0 -670 0 -670 -87 0 -87 0 62 -63 62 -63 -52 -77 c-29 -42 -60
-77 -69 -77 -8 0 -40 18 -70 40 -131 96 -129 95 -191 96 -57 1 -59 2 -89 42
-33 44 -51 57 -27 20 7 -13 19 -36 26 -52 13 -30 15 -30 -32 -10 -9 3 -16 -1
-18 -12 -3 -15 -7 -13 -34 10 -18 14 -35 26 -39 26 -11 0 0 -72 19 -112 l16
-38 -24 0 c-26 0 -59 29 -119 103 -21 26 -42 47 -46 47 -5 0 -43 -27 -85 -61
-69 -56 -80 -61 -111 -55 -51 10 -95 53 -128 126 -39 88 -61 110 -109 110
l-38 0 0 -69 c0 -75 -5 -81 -62 -81 l-31 0 27 25 c16 15 26 35 26 52 0 15 3
38 6 51 l6 22 -521 0 -521 0 0 345 0 345 -34 47 c-43 61 -194 334 -216 393
-10 25 -21 53 -25 63 -4 9 -3 17 1 17 18 -1 52 -37 56 -58 3 -21 4 -21 53 11
41 27 59 32 107 32 l58 0 0 73 0 72 -516 0 -516 -1 7 -27 c3 -15 18 -39 33
-54 30 -33 28 -33 -45 -12 -45 13 -52 18 -39 27 8 7 18 24 22 40 6 26 4 27
-30 27 l-36 0 0 -310z m3949 247 c79 1 111 -8 111 -32 0 -10 -10 -15 -29 -15
-40 0 -53 -20 -51 -82 2 -77 1 -88 -10 -88 -5 0 -10 15 -10 34 0 18 -3 54 -6
79 -6 44 -7 45 -33 36 -47 -18 -71 -49 -72 -93 l0 -41 -24 52 c-19 42 -30 54
-55 60 l-31 8 34 40 c18 22 36 48 40 58 6 17 8 17 34 0 21 -14 45 -18 102 -16z
m243 -39 c-9 -20 -11 -18 -11 22 0 40 2 42 11 23 8 -17 8 -29 0 -45z m-542 -7
c0 -11 -3 -11 -16 -1 -8 8 -20 22 -26 33 -10 19 -10 19 16 1 14 -11 26 -25 26
-33z m-3196 -70 c4 -5 -17 -17 -45 -26 -55 -19 -99 -10 -99 20 0 12 14 15 69
15 39 0 72 -4 75 -9z m163 -41 c19 -29 71 -53 100 -45 l25 6 -30 -38 c-17 -21
-42 -51 -55 -68 l-25 -29 -12 59 c-6 33 -15 77 -20 98 -9 41 -2 48 17 17z
m3590 -6 c21 -21 23 -28 12 -35 -20 -12 -79 -10 -112 4 l-29 12 44 22 c54 28
54 28 85 -3z m149 -95 c12 -23 11 -28 -4 -42 -19 -16 -82 -33 -82 -21 0 4 5
36 11 71 l11 64 25 -23 c14 -13 31 -35 39 -49z m-3926 1 c21 -36 32 -45 53
-45 34 1 35 -13 3 -21 -31 -8 -89 20 -121 58 -35 42 -33 60 7 56 26 -2 37 -12
58 -48z m264 -151 l41 -19 -43 4 -43 4 7 -33 6 -34 -38 6 c-48 7 -62 19 -70
60 -5 27 -3 32 17 36 33 6 76 -2 123 -24z m-6 -149 c12 -33 -1 -41 -18 -11
-12 24 -13 54 -1 47 5 -3 14 -19 19 -36z m92 -110 c11 -21 -1 -60 -19 -60 -4
0 -25 -11 -45 -25 -39 -27 -38 -27 -54 35 -8 34 -8 35 32 52 54 22 73 22 86
-2z m3569 -274 c-12 -34 -27 -44 -42 -30 -3 4 6 21 21 40 32 40 38 37 21 -10z
m-422 -20 c1 -1 -3 -19 -9 -39 l-12 -38 -38 60 c-21 33 -38 63 -38 67 0 4 73
-34 97 -50z m-37 -100 c0 -8 -16 -20 -36 -26 -30 -10 -35 -16 -31 -36 4 -23
-2 -23 -30 -2 -9 7 -5 16 15 32 53 44 82 55 82 32z m399 -70 c15 -8 34 -22 41
-31 12 -15 11 -15 -13 -4 -22 10 -36 9 -82 -6 -56 -20 -104 -14 -112 12 -12
35 113 56 166 29z m-199 -97 c-32 -13 -40 -26 -40 -70 0 -28 9 -46 41 -82 22
-26 38 -51 35 -56 -4 -5 -26 -17 -51 -26 -63 -25 -156 -17 -190 15 -14 13 -25
27 -25 32 0 4 35 8 78 8 89 0 102 8 102 62 0 31 -4 38 -20 38 -11 0 -25 -9
-32 -20 -7 -11 -18 -20 -24 -20 -11 0 -3 40 21 118 3 8 25 12 67 11 52 0 59
-2 38 -10z m-30 -762 c54 -20 185 -29 255 -17 33 6 32 6 76 -140 13 -40 37
-95 55 -121 l31 -47 -42 -54 c-52 -66 -146 -155 -202 -192 l-42 -28 -72 39
c-39 21 -74 44 -77 51 -2 8 0 31 7 52 10 34 18 41 67 59 30 12 59 21 64 21 5
0 -5 20 -22 45 -28 39 -31 52 -32 117 l-1 73 -117 15 c-64 8 -120 18 -124 23
-4 4 1 7 10 7 10 0 31 13 47 29 21 22 29 39 29 66 0 31 3 36 18 30 9 -4 42
-16 72 -28z m-1986 -15 c3 -5 -3 -31 -12 -58 -13 -36 -24 -50 -40 -52 -12 -2
-22 0 -22 5 0 18 23 89 32 101 12 14 34 16 42 4z m-1096 -312 c17 -11 32 -24
32 -29 0 -10 -29 -36 -33 -30 -19 24 -47 68 -47 73 0 11 14 6 48 -14z m2724
-604 c13 -19 9 -46 -7 -46 -21 0 -19 -7 16 -52 17 -21 29 -41 26 -44 -12 -12
-114 -16 -121 -5 -4 6 -1 14 7 17 13 5 13 15 -4 72 -10 37 -19 67 -19 67 6 6
97 -2 102 -9z m-2896 -203 c11 -8 47 -13 94 -13 72 0 120 -16 120 -39 0 -5
-18 -36 -41 -70 -37 -55 -43 -60 -67 -55 -28 7 -115 69 -148 105 -33 37 -94
62 -136 56 -42 -6 -45 -2 -22 31 12 18 25 22 68 22 38 0 61 6 77 19 l24 19 7
-31 c3 -17 14 -37 24 -44z"/>
<path d="M16243 3593 c6 -281 40 -440 98 -458 32 -11 10 -23 -46 -27 -50 -3
-50 -3 -53 -41 -2 -25 3 -46 17 -66 26 -36 26 -40 1 -34 -20 5 -20 0 -20
-1461 l0 -1466 240 0 239 0 7 35 c8 44 -9 88 -48 120 -27 23 -28 27 -18 64 6
22 7 64 4 94 -11 91 40 164 86 122 10 -9 31 -42 48 -73 17 -32 41 -67 54 -80
l24 -22 23 31 23 31 118 -7 c123 -7 142 -4 186 36 21 19 21 19 70 -76 27 -52
52 -95 57 -95 4 0 7 171 7 380 l0 379 1213 3 1212 3 100 27 c127 35 262 101
346 171 170 141 308 405 365 702 12 58 17 169 21 400 5 323 -3 492 -31 625
-29 136 -32 143 -81 172 l-45 28 0 -30 0 -30 -27 30 c-23 26 -41 33 -98 43
-86 15 -95 20 -95 57 0 24 8 34 43 54 23 13 70 30 105 37 34 6 62 15 62 19 0
22 -90 137 -157 200 l-77 73 -20 -41 c-11 -23 -25 -41 -30 -39 -22 7 -48 57
-53 99 -5 43 -8 46 -62 73 -136 67 -330 115 -546 135 -68 6 -670 10 -1585 10
-1245 -1 -1472 -3 -1457 -14 15 -12 17 -27 15 -97 l-3 -82 -35 34 c-19 19 -59
63 -88 97 -43 50 -59 62 -83 62 l-30 0 4 -207z m3213 141 c112 -56 242 -180
215 -207 -18 -18 -13 -65 15 -118 26 -53 26 -79 -2 -79 -16 0 -189 142 -231
190 -12 14 -27 37 -34 52 -9 23 -14 25 -29 16 -13 -8 -33 -8 -79 2 l-61 13 60
44 c33 25 60 48 60 51 0 4 -9 21 -20 37 -11 17 -20 34 -20 39 0 14 50 -2 126
-40z m-903 -6 c15 -6 27 -13 27 -17 -1 -17 -18 -31 -33 -25 -13 5 -17 0 -17
-19 0 -16 -10 -34 -27 -47 -32 -25 -72 -21 -168 15 -59 22 -59 23 -30 30 17 4
51 21 77 37 76 48 103 52 171 26z m-406 -62 c-17 -35 -37 -14 -37 38 l1 41 24
-27 c20 -24 22 -31 12 -52z m1068 -86 c-10 -11 -21 -18 -23 -15 -3 3 3 12 14
20 27 20 30 18 9 -5z m734 -16 l21 -36 -67 7 c-99 11 -106 19 -37 43 32 11 60
21 61 21 0 1 11 -15 22 -35z m-731 -548 c40 -20 46 -34 32 -70 l-10 -28 -38
22 c-55 33 -92 76 -92 108 0 43 10 46 44 13 17 -16 46 -36 64 -45z m-92 -156
c144 -19 242 -76 288 -169 40 -79 51 -146 50 -306 -1 -265 -57 -388 -203 -447
l-56 -23 -886 -3 -887 -3 -6 -31 c-3 -17 -20 -53 -37 -81 -52 -85 -53 -94 -13
-107 24 -8 43 -9 64 -1 23 8 33 7 45 -5 21 -21 19 -47 -2 -40 -10 3 -31 8 -47
12 -29 7 -29 7 -22 -31 l7 -38 -63 6 c-35 4 -76 10 -92 13 l-29 7 6 -43 c7
-51 18 -60 76 -60 55 0 44 -14 -21 -28 -46 -9 -48 -9 -48 14 0 19 -8 25 -42
34 -24 6 -110 33 -193 61 -203 69 -273 89 -315 89 -32 1 -40 7 -87 72 -37 50
-53 66 -53 51 0 -44 -25 -49 -118 -25 -102 26 -102 26 -128 8 -18 -14 -17 -16
26 -60 l44 -46 -62 0 c-66 0 -68 1 -52 31 10 18 5 52 -16 103 -5 13 -4 17 3
13 18 -11 41 3 64 39 24 39 44 44 54 12 7 -22 7 -22 12 -3 10 47 13 51 26 35
22 -29 61 -50 92 -50 45 0 55 14 40 58 -49 145 -50 138 14 126 30 -6 31 -8 15
-25 -12 -13 -15 -29 -11 -55 11 -68 45 -80 126 -44 49 23 91 26 109 8 9 -9 6
-18 -16 -41 l-27 -29 24 -19 c53 -43 102 3 109 101 4 52 6 59 19 48 15 -12 14
-67 -3 -125 -7 -27 31 -69 72 -79 21 -6 31 -2 46 16 24 29 23 34 -7 50 -33 18
-20 33 51 60 42 15 79 20 159 20 57 0 110 3 119 6 14 5 16 56 16 470 l0 464
848 0 c466 0 879 -5 918 -10z m-2432 -201 c13 -65 5 -75 -19 -24 -30 63 -31
79 -6 66 10 -6 21 -25 25 -42z m-34 -243 c0 -29 -14 -41 -70 -61 -24 -9 -53
-23 -63 -33 -19 -17 -19 -16 -3 15 14 29 107 103 128 103 5 0 8 -11 8 -24z
m3760 -227 c16 -30 -2 -46 -65 -59 -65 -14 -102 -41 -113 -83 l-8 -31 -33 48
c-18 26 -29 51 -25 56 5 4 41 18 79 30 39 13 75 29 80 36 6 7 24 15 40 17 17
2 31 5 32 6 1 0 7 -8 13 -20z m-2744 -756 c8 -29 -9 -30 -36 -3 -16 16 -20 33
-19 78 l0 57 25 -54 c13 -30 27 -65 30 -78z m444 73 c6 -8 10 -25 8 -37 -3
-21 -3 -21 -27 -2 -16 13 -22 26 -18 36 8 21 21 22 37 3z m370 -145 c0 -11 3
-28 7 -38 6 -16 5 -16 -10 -4 -18 14 -23 61 -7 61 6 0 10 -9 10 -19z m-771
-30 c6 -10 7 -21 4 -25 -11 -11 -58 -6 -77 9 -19 14 -18 15 5 24 37 15 57 13
68 -8z m820 -55 c46 -49 -7 -115 -98 -124 -61 -6 -76 11 -67 73 l7 45 30 -16
c17 -8 45 -14 62 -12 28 3 32 6 30 31 -2 33 7 34 36 3z m-307 -9 c94 -2 98 -3
98 -24 0 -24 -29 -48 -72 -58 -15 -4 -32 -13 -39 -21 -9 -11 -15 -11 -40 1
-39 20 -73 20 -65 -1 3 -9 9 -27 12 -41 l7 -25 -61 31 c-34 17 -67 28 -74 26
-15 -6 -65 41 -55 51 3 3 27 1 52 -4 l47 -10 -4 44 -3 45 50 -6 c27 -3 94 -6
147 -8z m612 -78 c18 -32 23 -50 15 -47 -8 2 -22 20 -31 39 -24 48 -38 61 -59
56 -24 -6 -24 1 -2 25 17 19 17 19 33 -1 8 -12 28 -44 44 -72z m-2012 64 c22
-20 23 -68 3 -116 -21 -51 -19 -97 6 -123 l22 -23 -24 -5 c-13 -3 -49 -8 -80
-11 l-56 -6 1 126 c1 126 1 127 29 151 33 28 73 31 99 7z m2644 -70 c-6 -6
-90 -23 -94 -18 -2 1 16 14 40 28 37 21 44 23 51 10 5 -8 6 -17 3 -20z m-1656
-43 c4 0 15 12 25 26 24 37 35 16 35 -69 0 -67 0 -68 -21 -53 -12 8 -42 45
-67 83 -44 65 -44 67 -13 40 18 -15 36 -27 41 -27z m1443 -1 c29 -33 39 -99
14 -99 -7 0 -36 16 -65 36 -56 37 -57 45 -12 81 23 19 33 16 63 -18z m-2844
-60 c26 -9 29 -14 20 -25 -7 -8 -9 -31 -6 -54 3 -22 4 -40 2 -40 -3 0 -77 98
-89 118 -9 15 29 16 73 1z"/>
</g>
</g>
</svg>
