<svg height="200px" width="200px" version="1.1" id="Layer_1" xmlns="http://www.w3.org/2000/svg" xmlns:xlink="http://www.w3.org/1999/xlink" viewBox="0 0 650 650" xml:space="preserve" fill="#000000" transform="rotate(45)"><g id="SVGRepo_bgCarrier" stroke-width="0"></g><g id="SVGRepo_tracerCarrier" stroke-linecap="round" stroke-linejoin="round"></g><g id="SVGRepo_iconCarrier"> <path style="fill:#fddb51;" d="M486.242,33.3c-4.172,4.172-10.922,4.172-15.094,0l-7.547-7.547c-4.156-4.156-4.156-10.922,0-15.078 c4.172-4.172,10.922-4.172,15.094,0l7.547,7.531C490.398,22.378,490.398,29.128,486.242,33.3z"></path> <path style="fill:#fddb51;" d="M501.32,18.206L353.822,165.719c-4.172,4.156-10.921,4.172-15.093,0 c-4.156-4.171-4.156-10.921,0-15.093L486.242,3.128c4.156-4.171,10.922-4.171,15.078,0C505.492,7.3,505.492,14.05,501.32,18.206z"></path> <path style="fill:#fddb51;" d="M429.368,65.159l-40.28-4.484c-3.219-0.359-6.422,0.766-8.719,3.062l-49.265,49.265 c-1.328,1.344-2.281,3-2.766,4.828l-16.233,61.483c-1.234,4.656,0.812,9.562,5,11.969c4.171,2.406,9.452,1.703,12.858-1.703 L436.196,83.346c0,0,0,0,0-0.016c4.172-4.156,4.172-10.906,0-15.078C434.29,66.346,431.852,65.315,429.368,65.159z"></path> <path style="fill:#fddb51;" d="M260.855,334.106c-2.906,2.922-7.367,4-11.438,2.406l-32.515-12.749 c-5.492-2.141-8.195-8.328-6.047-13.812s8.336-8.203,13.828-6.047l32.515,12.734c5.484,2.156,8.188,8.344,6.039,13.828 C262.691,331.872,261.863,333.106,260.855,334.106z"></path> <path style="fill:#fddb51;" d="M222.692,303.342c-3.438-0.625-6.969,0.484-9.445,2.953l-22.625,22.625 c-3.148,3.14-4.008,7.905-2.172,11.952l37.718,82.983c1.445,3.172,4.367,5.453,7.805,6.078c3.445,0.625,6.976-0.484,9.445-2.953 l22.633-22.641c3.141-3.141,4.008-7.906,2.164-11.953l-37.71-82.967C229.051,306.232,226.137,303.967,222.692,303.342z"></path> <path style="fill:#fddb51;" d="M394.369,280.545c-30.797-0.297-57.233-7.281-76.451-20.202 c-13.859-9.328-19.422-18.703-19.828-19.406c-1.547-3.031-4.391-5.062-7.766-5.609s-6.766,0.656-9.188,3.078l-30.172,30.17 c-4.062,4.062-4.18,10.594-0.281,14.797c1.977,2.125,49.344,52.14,135.545,56.202c3.094,0.141,5.984-1.047,8.047-3.109 c1.438-1.453,2.484-3.328,2.906-5.452l7.547-37.719c0.625-3.109-0.172-6.344-2.172-8.812 C400.541,282.014,397.541,280.576,394.369,280.545z"></path> <path style="fill:#fddb51;" d="M150.576,308.826c-2.977,0.125-5.773,1.5-7.695,3.781l-19.726,23.312l-41.593,26.953 c-0.625,0.422-1.211,0.891-1.734,1.422l-69.155,69.155c-4.172,4.156-4.172,10.922,0,15.078l60.342,60.342 c2.305,2.312,5.539,3.438,8.781,3.047c2.406-0.281,4.617-1.359,6.305-3.047c0.578-0.578,1.094-1.234,1.531-1.938l96.982-157.325 c2.594-4.203,1.961-9.641-1.539-13.141L158.56,311.95C156.451,309.842,153.56,308.717,150.576,308.826z"></path> <path style="fill:#fddb51;" d="M358.9,190.797L190.622,359.091c-2,2-4.719,3.125-7.547,3.125s-5.539-1.125-7.539-3.125 l-30.171-30.171c-2.859-2.859-3.859-7.078-2.578-10.922l7.539-22.625c0.523-1.562,1.406-3,2.578-4.172l178.201-178.2 c2.781-2.781,6.859-3.796,10.625-2.672c3.766,1.141,6.593,4.25,7.374,8.094l12.703,62.718 C362.525,184.641,361.432,188.282,358.9,190.797z"></path> <path style="fill:#fddb51;" d="M192.966,266.232l90.515-90.513c4.156-4.172,4.156-10.921,0-15.093l-105.6,105.606 C182.044,270.404,188.802,270.404,192.966,266.232z"></path> </g></svg>