<!DOCTYPE svg PUBLIC "-//W3C//DTD SVG 1.1//EN" "http://www.w3.org/Graphics/SVG/1.1/DTD/svg11.dtd">

<!-- Uploaded to: SVG Repo, www.svgrepo.com, Transformed by: SVG Repo Mixer Tools -->
<svg height="800px" width="800px" version="1.1" id="Layer_1" xmlns="http://www.w3.org/2000/svg" xmlns:xlink="http://www.w3.org/1999/xlink" viewBox="0 0 660 660" xml:space="preserve" fill="#000000">

<g id="SVGRepo_bgCarrier" stroke-width="0"/>

<g id="SVGRepo_tracerCarrier" stroke-linecap="round" stroke-linejoin="round"/>

<g id="SVGRepo_iconCarrier"> <g transform="translate(12 1)"> <path style="fill:#fddb51;" d="M359.253,20.333c18.773,0,34.133,15.36,34.133,34.133S378.027,88.6,359.253,88.6 S325.12,73.24,325.12,54.467S340.48,20.333,359.253,20.333"/> <path style="fill:#fddb51;" d="M194.56,141.507c8.533-1.707,17.92-1.707,28.16-1.707h51.2c10.24,0,19.627,0.853,28.16,2.56 c68.267,10.24,108.373,58.88,108.373,133.973c0,153.6-63.147,221.867-162.133,221.867S86.187,429.933,86.187,276.333 C86.187,200.387,126.293,151.747,194.56,141.507"/> <path style="fill:#fddb51;" d="M290.987,20.333L302.08,142.36c-9.387-1.707-18.773-2.56-28.16-2.56h-51.2 c-9.387,0-18.773,0.853-28.16,1.707l11.093-121.173c2.56-13.653,11.947-17.067,25.6-17.067h34.133 C279.04,3.267,289.28,6.68,290.987,20.333"/> </g> <path style="fill:#000000;" d="M243.253,503.467c-0.853,0-1.707,0-2.56-0.853l0,0C169.867,495.787,93.92,448,93.92,277.333 c0-87.893,52.907-140.8,140.8-140.8l0,0h51.2l0,0c60.587,0,104.96,24.747,126.293,69.973c0.853,0.853,0.853,1.707,0.853,2.56 c8.533,19.627,13.653,42.667,13.653,69.12c0,170.667-75.947,218.453-146.773,225.28l0,0c-1.707,0.853-3.413,0.853-4.267,0 c-10.24,0.853-19.627,0.853-29.867,0C244.96,503.467,244.107,503.467,243.253,503.467z M244.107,494.08 c4.267,0,7.68,0.853,11.947,0.853v-76.8H198.88C215.947,465.92,237.28,488.96,244.107,494.08z M264.587,418.133v76.8 c4.267,0,7.68,0,11.947-0.853c5.973-5.973,28.16-28.16,45.227-75.947H264.587z M331.147,418.133 c-12.8,39.253-29.867,62.293-40.96,74.24c45.227-7.68,79.36-32.427,100.693-74.24H331.147z M129.76,418.133 c21.333,41.813,55.467,67.413,100.693,74.24c-11.093-11.947-27.307-34.987-40.96-74.24H129.76z M333.707,409.6h61.44 c7.68-17.067,13.653-37.547,17.067-59.733h-66.56C343.093,372.907,338.827,392.533,333.707,409.6z M264.587,409.6h59.733 c5.12-17.067,10.24-36.693,12.8-59.733h-72.533V409.6z M196.32,409.6h59.733v-59.733H183.52 C186.08,372.907,191.2,392.533,196.32,409.6z M125.493,409.6h61.44c-5.12-17.067-9.387-36.693-12.8-59.733h-66.56 C111.84,372.053,117.813,392.533,125.493,409.6z M347.36,341.333h66.56c2.56-17.92,4.267-38.4,4.267-59.733H349.92 c0,1.707,0,2.56,0,4.267C349.92,306.347,349.067,324.267,347.36,341.333z M264.587,341.333h74.24 c1.707-17.067,2.56-34.987,2.56-55.467c0-1.707,0-2.56,0-4.267h-76.8V341.333z M181.813,341.333h74.24V281.6h-76.8 c0,1.707,0,2.56,0,4.267C179.253,306.347,180.107,324.267,181.813,341.333z M106.72,341.333h66.56 c-1.707-17.067-2.56-34.987-2.56-55.467c0-1.707,0-2.56,0-4.267h-68.267C102.453,302.933,104.16,323.413,106.72,341.333z M349.92,273.067h68.267c-0.853-22.187-5.12-42.667-12.8-59.733h-64C345.653,229.547,349.067,249.173,349.92,273.067z M264.587,273.067h76.8c-0.853-23.893-4.267-43.52-8.533-59.733h-68.267V273.067z M179.253,273.067h76.8v-59.733h-68.267 C183.52,229.547,180.107,249.173,179.253,273.067z M102.453,273.067h68.267c0.853-23.893,3.413-43.52,7.68-59.733h-64 C107.573,230.4,103.307,250.88,102.453,273.067z M339.68,204.8h62.293c-18.773-34.133-52.907-54.613-98.133-58.88 C314.933,154.453,329.44,172.373,339.68,204.8z M264.587,204.8h65.707c-15.36-46.933-40.96-58.027-45.227-59.733h-20.48V204.8z M190.347,204.8h65.707v-59.733h-20.48C231.307,146.773,205.707,157.867,190.347,204.8z M119.52,204.8h62.293 c10.24-32.427,24.747-50.347,36.693-58.88C171.573,150.187,137.44,170.667,119.52,204.8z M81.12,196.267h-0.853 c-2.56-0.853-3.413-3.413-2.56-5.12l42.667-136.533c0-0.853,13.653-37.547,55.467-37.547h39.253C219.36,1.707,233.867,0,244.107,0 h34.133c11.093,0,24.747,1.707,29.013,17.067h64.853c21.333,0,38.4,17.067,38.4,38.4s-17.067,38.4-38.4,38.4 c-21.333,0-38.4-17.067-38.4-38.4c0-11.947,5.973-23.04,14.507-29.867H308.96l8.533,89.6c0,2.56-1.707,4.267-4.267,4.267 s-4.267-1.707-4.267-4.267l-8.533-93.867l0,0c-1.707-9.387-6.827-12.8-21.333-12.8H244.96c-13.653,0-19.627,3.413-21.333,13.653l0,0 l-8.533,93.867c0,2.56-2.56,4.267-4.267,4.267c-2.56,0-4.267-2.56-4.267-4.267l8.533-89.6h-38.4 c-35.84,0-46.933,30.72-46.933,31.573L87.093,194.56C84.533,195.413,82.827,196.267,81.12,196.267z M371.253,25.6 c-16.213,0-29.867,13.653-29.867,29.867s13.653,29.867,29.867,29.867S401.12,71.68,401.12,55.467S387.467,25.6,371.253,25.6z"/> </g>

</svg>