<!DOCTYPE svg PUBLIC "-//W3C//DTD SVG 1.1//EN" "http://www.w3.org/Graphics/SVG/1.1/DTD/svg11.dtd">

<!-- Uploaded to: SVG Repo, www.svgrepo.com, Transformed by: SVG Repo Mixer Tools -->
<svg fill="#fddb51" height="800px" width="800px" version="1.1" id="Layer_1" xmlns="http://www.w3.org/2000/svg" xmlns:xlink="http://www.w3.org/1999/xlink" viewBox="0 0 660 660" xml:space="preserve">

<g id="SVGRepo_bgCarrier" stroke-width="0"/>

<g id="SVGRepo_tracerCarrier" stroke-linecap="round" stroke-linejoin="round"/>

<g id="SVGRepo_iconCarrier"> <g> <g> <g> <path d="M331.688,277.386c-1.519-2.671-4.352-4.326-7.424-4.326H187.73c-3.072,0-5.905,1.655-7.424,4.326 c-1.519,2.679-1.476,5.965,0.102,8.602c15.957,26.581,24.388,57.02,24.388,88.03v35.575h34.133c4.719,0,8.533,3.814,8.533,8.533 s-3.814,8.533-8.533,8.533h-34.133v17.067h34.133c4.719,0,8.533,3.814,8.533,8.533s-3.814,8.533-8.533,8.533h-34.133 c0,28.237,22.963,51.2,51.2,51.2c28.228,0,51.2-22.963,51.2-51.2v-86.775c0-31.01,8.431-61.449,24.38-88.03 C333.164,283.351,333.207,280.065,331.688,277.386z"/> <path d="M213.329,255.995h85.333c4.719,0,8.533-3.814,8.533-8.533v-88.218c0-64.367-34.287-124.919-89.472-158.029 c-2.637-1.57-5.922-1.63-8.602-0.111c-2.68,1.519-4.326,4.352-4.326,7.424v238.933 C204.796,252.18,208.61,255.995,213.329,255.995z M243.409,86.352c4.139-2.261,9.327-0.683,11.563,3.456 c11.665,21.623,18.091,47.3,18.091,72.32v51.2c0,4.719-3.814,8.533-8.533,8.533s-8.533-3.814-8.533-8.533v-51.2 c0-22.238-5.7-45.039-16.043-64.213C237.709,93.767,239.262,88.588,243.409,86.352z"/> </g> </g> </g> </g>

</svg>