<!DOCTYPE svg PUBLIC "-//W3C//DTD SVG 1.1//EN" "http://www.w3.org/Graphics/SVG/1.1/DTD/svg11.dtd">

<!-- Uploaded to: SVG Repo, www.svgrepo.com, Transformed by: SVG Repo Mixer Tools -->
<svg fill="#fddb51" height="800px" width="800px" version="1.1" id="Layer_1" xmlns="http://www.w3.org/2000/svg" xmlns:xlink="http://www.w3.org/1999/xlink" viewBox="0 0 660 660" xml:space="preserve">

<g id="SVGRepo_bgCarrier" stroke-width="0"/>

<g id="SVGRepo_tracerCarrier" stroke-linecap="round" stroke-linejoin="round"/>

<g id="SVGRepo_iconCarrier"> <g> <g> <path d="M272.696,378.435h-33.391c-9.206,0-16.696,7.49-16.696,16.696s7.49,16.696,16.696,16.696h33.391 c9.206,0,16.696-7.49,16.696-16.696S281.902,378.435,272.696,378.435z"/> </g> </g> <g> <g> <path d="M256,233.739c-12.271,0-22.261,9.984-22.261,22.261c0,12.277,9.99,22.261,22.261,22.261 c12.271,0,22.261-9.984,22.261-22.261C278.261,243.723,268.271,233.739,256,233.739z"/> </g> </g> <g> <g> <path d="M256,0C114.837,0,0,114.843,0,256s114.837,256,256,256s256-114.843,256-256S397.163,0,256,0z M272.696,445.217h-33.391 c-27.619,0-50.087-22.468-50.087-50.087s22.468-50.087,50.087-50.087h33.391c27.619,0,50.087,22.468,50.087,50.087 S300.315,445.217,272.696,445.217z M389.793,389.793c-6.522,6.522-17.086,6.522-23.609,0l-23.609-23.609 c-6.521-6.516-6.521-17.092,0-23.609c6.521-6.521,17.087-6.521,23.609,0l11.185,11.179c18.796-23.271,30.25-51.24,33.399-81.06 H395.13c-9.217,0-16.696-7.473-16.696-16.696c0-9.223,7.479-16.696,16.696-16.696h15.691 c-3.147-29.82-14.697-57.749-33.495-81.021l-72.174,72.174c4.014,7.687,6.5,16.288,6.5,25.543 c0,30.684-24.968,55.652-55.652,55.652s-55.652-24.968-55.652-55.652c0-30.684,24.968-55.652,55.652-55.652 c9.255,0,17.855,2.487,25.543,6.5l72.174-72.174c-23.273-18.798-51.202-30.348-81.022-33.496v15.691 c0,9.223-7.479,16.696-16.696,16.696c-9.217,0-16.696-7.473-16.696-16.696v-15.691c-29.82,3.148-57.749,14.697-81.022,33.495 l11.142,11.14c6.521,6.516,6.521,17.092,0,23.609c-3.261,3.261-7.533,4.892-11.804,4.892c-4.271,0-8.544-1.631-11.804-4.892 l-11.142-11.14c-18.798,23.273-30.349,51.202-33.496,81.022h15.691c9.217,0,16.696,7.473,16.696,16.696 c0,9.223-7.479,16.696-16.696,16.696h-15.638c3.15,29.82,14.603,57.788,33.399,81.06l11.185-11.179 c6.521-6.521,17.087-6.521,23.609,0c6.521,6.516,6.521,17.092,0,23.609l-23.609,23.609c-6.521,6.521-17.087,6.521-23.609,0 c-73.332-73.332-74.386-193.201,0-267.587c73.801-73.811,193.823-73.774,267.587,0 C463.142,195.555,464.16,315.427,389.793,389.793z"/> </g> </g> </g>

</svg>